<?xml version="1.0" encoding="utf-8"?>
<!-- Generator: Adobe Illustrator 16.0.0, SVG Export Plug-In . SVG Version: 6.00 Build 0)  -->
<!DOCTYPE svg PUBLIC "-//W3C//DTD SVG 1.1//EN" "http://www.w3.org/Graphics/SVG/1.1/DTD/svg11.dtd">
<svg version="1.1" id="Layer_1" xmlns="http://www.w3.org/2000/svg" xmlns:xlink="http://www.w3.org/1999/xlink" x="0px" y="0px"
	 width="61.317px" height="57.456px" viewBox="0 0 61.317 57.456" enable-background="new 0 0 61.317 57.456" xml:space="preserve">
<g id="chat">
	<path opacity="0.2" fill="#010101" d="M61.317,33.772c0,2.213-1.778,4.006-3.975,4.006H16.465c-2.195,0-3.974-1.793-3.974-4.006
		V5.162c0-2.212,1.778-4.005,3.974-4.005h40.878c2.196,0,3.975,1.793,3.975,4.005V33.772z"/>
	<path fill="#BD4231" d="M61.317,32.616c0,2.213-1.778,4.006-3.975,4.006H16.465c-2.195,0-3.974-1.793-3.974-4.006V4.005
		C12.491,1.793,14.27,0,16.465,0h40.878c2.196,0,3.975,1.793,3.975,4.005V32.616z"/>
	<path opacity="0.2" fill="#010101" d="M44.853,7.442H3.974C1.779,7.442,0,9.235,0,11.448v28.61c0,2.212,1.779,4.005,3.974,4.005
		h8.518c0,3.377,0,11.345,0,12.236c0,1.109,1.15,1.548,2.091,0.746c0.801-0.682,12.766-10.041,16.575-12.982h13.695
		c2.195,0,3.975-1.793,3.975-4.005v-28.61C48.827,9.235,47.048,7.442,44.853,7.442z"/>
	<path fill="#DF4D3A" d="M44.853,6.286H3.974C1.779,6.286,0,8.079,0,10.292v28.61c0,2.212,1.779,4.005,3.974,4.005h8.518
		c0,3.377,0,11.344,0,12.236c0,1.109,1.15,1.548,2.091,0.746c0.801-0.682,12.766-10.041,16.575-12.982h13.695
		c2.195,0,3.975-1.793,3.975-4.005v-28.61C48.827,8.079,47.048,6.286,44.853,6.286z"/>
	<g opacity="0.5">
		<g>
			<path fill="#FFFFFF" d="M12.491,14.877v3.434h23.846v-3.434H12.491z M12.491,26.321h23.846v-3.433H12.491V26.321z M12.491,34.333
				h19.871v-3.434H12.491V34.333z"/>
		</g>
	</g>
	<path fill="#933023" d="M61.2,32.623V20.997L47.614,7.431c0.664,0.716,1.075,1.675,1.075,2.732v26.464h8.536
		C59.42,36.627,61.2,34.834,61.2,32.623z"/>
</g>
</svg>
