<?xml version="1.0" encoding="utf-8"?>
<!-- Generator: Adobe Illustrator 16.0.0, SVG Export Plug-In . SVG Version: 6.00 Build 0)  -->
<!DOCTYPE svg PUBLIC "-//W3C//DTD SVG 1.1//EN" "http://www.w3.org/Graphics/SVG/1.1/DTD/svg11.dtd">
<svg version="1.1" id="Layer_1" xmlns="http://www.w3.org/2000/svg" xmlns:xlink="http://www.w3.org/1999/xlink" x="0px" y="0px"
	 width="64.407px" height="66.177px" viewBox="0 0 64.407 66.177" enable-background="new 0 0 64.407 66.177" xml:space="preserve">
<g id="globe">
	<path opacity="0.1" fill="#010101" d="M64.407,33.957c0,17.794-14.418,32.22-32.203,32.22S0,51.751,0,33.957
		C0,16.16,14.418,1.736,32.204,1.736S64.407,16.16,64.407,33.957z"/>
	<path fill="#036B83" d="M64.407,32.223c0,17.794-14.418,32.22-32.203,32.22S0,50.017,0,32.223C0,14.427,14.418,0.002,32.204,0.002
		S64.407,14.427,64.407,32.223z"/>
	<g>
		<g>
			<path fill="#4FBB77" d="M48.091,41.149l-3.919-5.271l-4.248-2.33l-15.518-0.979l-3.674-6.865l1.226-2.287l6.452,1.143
				l8.819-10.378h5.309l0.98-1.879l2.042,1.471l-2.287-4.658l-5.962-1.308L36.905,9.36l-2.534,1.228l-2.614-2.78l3.43-1.144h3.431
				l0.164,0.898h3.512l-3.267-1.715l-3.595-0.572L33.31,5.848H20.569l-7.023,3.268h2.368l-7.35,9.316l-0.57,5.556l4.899,5.393
				l5.635,1.717l5.391,4.168l3.674-1.717v6.701l-1.633,5.146l7.268,6.783l-0.816,5.476l0.08,3.677l2.125,1.307l4.328-3.105
				L50.869,48.42l2.858-4.983l-1.633-2.287H48.091z M58.055,21.129v-1.635l-4.818-5.966l-3.512-2.042l7.187,10.785l1.226,15.606
				l2.043-1.469V25.704L58.055,21.129z"/>
		</g>
	</g>
	<path opacity="0.15" fill="#FFFFFF" d="M32.204,0C23.961,0,15.72,3.145,9.434,9.438l45.54,45.566
		c12.576-12.582,12.578-32.983,0-45.566C48.686,3.145,40.446,0,32.204,0"/>
	<path opacity="0.2" fill="#BFBDB1" d="M32.199,32.223H0c0.07,17.733,14.458,32.089,32.199,32.089V32.223"/>
</g>
</svg>
