<?xml version="1.0" encoding="utf-8"?>
<!-- Generator: Adobe Illustrator 16.0.0, SVG Export Plug-In . SVG Version: 6.00 Build 0)  -->
<!DOCTYPE svg PUBLIC "-//W3C//DTD SVG 1.1//EN" "http://www.w3.org/Graphics/SVG/1.1/DTD/svg11.dtd">
<svg version="1.1" id="Layer_1" xmlns="http://www.w3.org/2000/svg" xmlns:xlink="http://www.w3.org/1999/xlink" x="0px" y="0px"
	 width="57.876px" height="57.121px" viewBox="0 0 57.876 57.121" enable-background="new 0 0 57.876 57.121" xml:space="preserve">
<g id="Social">
	<path id="Bg1" display="none" fill-rule="evenodd" clip-rule="evenodd" fill="#586AB2" d="M28.807-21.439c27.613,0,50,22.386,50,50
		c0,27.614-22.387,49.999-50,49.999c-27.615,0-50-22.385-50-49.999C-21.193,0.947,1.191-21.439,28.807-21.439z"/>
	<path id="Bg2" display="none" fill-rule="evenodd" clip-rule="evenodd" fill="#5787C6" d="M28.807-21.439
		c27.613,0,50,22.161,50,49.499c0,27.339-22.387,49.5-50,49.5"/>
	<g id="Box">
		<g opacity="0.2">
			<polygon fill-rule="evenodd" clip-rule="evenodd" fill="#030303" points="56.773,41.653 1.605,39.039 0.438,11.748 29.034,3.498 
				57.611,11.748 			"/>
			<polygon fill-rule="evenodd" clip-rule="evenodd" fill="#030303" points="28.416,57.121 0.014,43.132 1.021,11.748 
				28.416,26.187 			"/>
			<polygon fill-rule="evenodd" clip-rule="evenodd" fill="#030303" points="57.876,42.831 28.416,57.121 28.416,26.187 
				57.611,11.748 			"/>
			<path fill="#030303" d="M12.984,27.358c0,0.557,0,3.043,0,3.043l-0.925-0.123v3.698l0.925,0.146v11.059l1.93,0.45V34.43
				l1.324,0.21c0,0,0.125-1.806,0.186-3.793c-0.174-0.025-1.503-0.201-1.503-0.201s0-2.194,0-2.578c0-0.385,0.215-0.878,0.426-0.856
				c0.213,0.024,0.661,0.074,1.08,0.119c0-0.519,0-2.311,0-3.964c-0.56-0.045-1.189-0.1-1.463-0.122
				C12.937,23.074,12.984,26.803,12.984,27.358z"/>
			<path fill="#030303" d="M49.815,28.036c-0.369,0.272-0.766,0.464-1.182,0.557c0.428-0.421,0.752-1.076,0.908-1.843
				c-0.398,0.387-0.838,0.672-1.312,0.835c-0.378-0.629-0.922-1.015-1.522-0.999c-1.168,0.032-2.122,1.556-2.122,3.404
				c0,0.26,0.019,0.516,0.055,0.763c-1.796-0.062-3.408-1.342-4.5-3.363c-0.192,0.51-0.304,1.1-0.304,1.727
				c0,1.186,0.395,2.213,0.99,2.795c-0.362-0.002-0.707-0.135-1.008-0.378c0,0.014,0,0.03,0,0.043c0,1.655,0.768,2.989,1.777,3.239
				c-0.186,0.089-0.38,0.145-0.579,0.156c-0.144,0.009-0.281-0.002-0.417-0.033c0.28,1.332,1.096,2.259,2.052,2.214
				c-0.747,0.964-1.696,1.581-2.738,1.662c-0.179,0.017-0.357,0.015-0.534-0.005c0.989,0.889,2.151,1.354,3.388,1.248
				c3.935-0.34,6.029-5.523,6.029-9.863c0-0.145-0.003-0.285-0.007-0.424C49.192,29.291,49.542,28.702,49.815,28.036z"/>
		</g>
		<g>
			<linearGradient id="SVGID_1_" gradientUnits="userSpaceOnUse" x1="0.0137" y1="19.1899" x2="57.876" y2="19.1899">
				<stop  offset="0.9" style="stop-color:#E8E7DF"/>
				<stop  offset="1" style="stop-color:#E9E7DA"/>
			</linearGradient>
			<polygon fill-rule="evenodd" clip-rule="evenodd" fill="url(#SVGID_1_)" points="57.038,38.155 0.204,38.38 0.014,8.25 29.3,0 
				57.876,8.25 			"/>
			<polygon fill-rule="evenodd" clip-rule="evenodd" fill="#465FAB" points="28.681,54.782 0,40.216 0,8.25 28.681,16.892 			"/>
			<polygon fill-rule="evenodd" clip-rule="evenodd" fill="#58BAE5" points="57.876,40.216 28.681,54.782 28.681,16.892 
				57.876,8.25 			"/>
			<linearGradient id="SVGID_2_" gradientUnits="userSpaceOnUse" x1="12.3252" y1="30.9365" x2="16.6914" y2="30.9365">
				<stop  offset="0.9" style="stop-color:#E8E7DF"/>
				<stop  offset="1" style="stop-color:#E9E7DA"/>
			</linearGradient>
			<path fill="url(#SVGID_2_)" d="M13.249,23.86c0,0.557,0,3.043,0,3.043l-0.924-0.124v3.698l0.924,0.146v11.057l1.93,0.451V30.931
				l1.325,0.211c0,0,0.124-1.805,0.186-3.794c-0.175-0.025-1.504-0.2-1.504-0.2s0-2.193,0-2.579c0-0.384,0.215-0.878,0.426-0.855
				c0.213,0.024,0.661,0.074,1.08,0.119c0-0.519,0-2.312,0-3.966c-0.56-0.045-1.188-0.099-1.463-0.121
				C13.201,19.576,13.249,23.305,13.249,23.86z"/>
			<linearGradient id="SVGID_3_" gradientUnits="userSpaceOnUse" x1="37.7383" y1="29.832" x2="51.9873" y2="29.832">
				<stop  offset="0.9" style="stop-color:#E8E7DF"/>
				<stop  offset="1" style="stop-color:#E9E7DA"/>
			</linearGradient>
			<path fill="url(#SVGID_3_)" d="M51.987,22.603c-0.504,0.373-1.045,0.634-1.614,0.763c0.584-0.576,1.026-1.469,1.239-2.519
				c-0.544,0.528-1.144,0.92-1.79,1.141c-0.517-0.859-1.259-1.385-2.077-1.362c-1.597,0.043-2.897,2.125-2.897,4.649
				c0,0.354,0.023,0.703,0.073,1.039c-2.452-0.083-4.653-1.831-6.144-4.592c-0.263,0.696-0.414,1.503-0.414,2.359
				c0,1.619,0.538,3.021,1.351,3.816c-0.494-0.003-0.964-0.186-1.376-0.517c0,0.02,0,0.042,0,0.059c0,2.262,1.049,4.083,2.429,4.425
				c-0.255,0.121-0.521,0.194-0.792,0.21c-0.195,0.014-0.385,0-0.569-0.044c0.384,1.818,1.497,3.083,2.801,3.023
				c-1.02,1.314-2.315,2.156-3.738,2.27c-0.244,0.02-0.488,0.02-0.729-0.008c1.352,1.213,2.938,1.849,4.627,1.703
				c5.37-0.462,8.23-7.54,8.23-13.466c0-0.196-0.003-0.389-0.01-0.578C51.137,24.316,51.612,23.512,51.987,22.603z"/>
		</g>
	</g>
</g>
</svg>
