<?xml version="1.0" standalone="no"?>
<!DOCTYPE svg PUBLIC "-//W3C//DTD SVG 1.1//EN" "http://www.w3.org/Graphics/SVG/1.1/DTD/svg11.dtd" >
<svg xmlns="http://www.w3.org/2000/svg">
<metadata>Generated by IcoMoon</metadata>
<defs>
<font id="icomoon" horiz-adv-x="512">
<font-face units-per-em="512" ascent="480" descent="-32" />
<missing-glyph horiz-adv-x="512" />
<glyph unicode="&#x20;" d="" horiz-adv-x="256" />
<glyph unicode="&#x21;" d="M287.935-32h-95.935v256h-64v88.225l64 0.029-0.104 51.976c0 71.976 19.517 115.77 104.299 115.77h70.588v-88.242h-44.115c-33.016 0-34.603-12.328-34.603-35.342l-0.131-44.162h79.345l-9.352-88.225-69.927-0.029-0.065-256z" />
<glyph unicode="&#x22;" d="M512 382.791c-18.838-8.354-39.082-14.001-60.33-16.54 21.686 13 38.343 33.585 46.186 58.115-20.298-12.039-42.778-20.78-66.705-25.49-19.16 20.415-46.461 33.17-76.673 33.17-58.011 0-105.044-47.029-105.044-105.039 0-8.233 0.929-16.25 2.72-23.939-87.3 4.382-164.701 46.2-216.509 109.753-9.042-15.514-14.223-33.558-14.223-52.809 0-36.444 18.544-68.596 46.73-87.433-17.219 0.546-33.416 5.271-47.577 13.139-0.010-0.438-0.010-0.878-0.010-1.321 0-50.894 36.209-93.348 84.261-103-8.813-2.4-18.094-3.686-27.674-3.686-6.769 0-13.349 0.66-19.764 1.886 13.368-41.73 52.16-72.103 98.126-72.948-35.95-28.175-81.243-44.967-130.458-44.967-8.479 0-16.84 0.497-25.058 1.47 46.486-29.805 101.701-47.197 161.021-47.197 193.211 0 298.868 160.062 298.868 298.872 0 4.554-0.103 9.084-0.305 13.59 20.528 14.81 38.336 33.31 52.418 54.374z" />
<glyph unicode="&#x23;" d="M426 480h-340c-47.3 0-86-38.7-86-86v-340c0-47.3 38.7-86 86-86h340c47.3 0 86 38.7 86 86v340c0 47.3-38.7 86-86 86zM192 64h-64v224h64v-224zM160 320c-17.673 0-32 14.327-32 32s14.327 32 32 32 32-14.327 32-32-14.327-32-32-32zM416 64h-64v128c0 17.673-14.327 32-32 32s-32-14.327-32-32v-128h-64v224h64v-39.736c13.199 18.132 33.376 39.736 56 39.736 39.765 0 72-35.817 72-80v-144z" />
<glyph unicode="&#x24;" d="M128 320c0 70.692 57.308 128 128 128s128-57.308 128-128c0-70.692-57.308-128-128-128-70.692 0-128 57.308-128 128zM384 160h-256c-70.692 0-128-57.309-128-128v-32h512v32c0 70.691-57.308 128-128 128z" />
<glyph unicode="&#x25;" d="M368 480h-224c-26.4 0-48-21.6-48-48v-416c0-26.4 21.6-48 48-48h224c26.4 0 48 21.6 48 48v416c0 26.4-21.6 48-48 48zM192 456h128v-16h-128v16zM256 0c-17.673 0-32 14.327-32 32s14.327 32 32 32 32-14.327 32-32-14.327-32-32-32zM384 96h-256v320h256v-320z" />
<glyph unicode="&#x27;" d="M256 480c-88.366 0-160-71.634-160-160 0-160 160-352 160-352s160 192 160 352c0 88.366-71.635 160-160 160zM256 224c-53.020 0-96 42.98-96 96s42.98 96 96 96 96-42.98 96-96-42.98-96-96-96z" />
<glyph unicode="&#x28;" d="M432 416l-240-240-112 112-80-80 192-192 320 320z" />
<glyph unicode="&#x2c;" d="M352 448l-160-160h-96l-96-128c0 0 101.708 28.326 161.033 15.042l-161.033-207.042 210.951 164.072c29.419-67.327-18.951-164.072-18.951-164.072l128 96v96l160 160 32 160-160-32z" />
<glyph unicode="&#x2d;" d="M512 300.922c0-43.181-18.609-82.015-48.245-108.922h0.245l-160-160c-16-16-32-32-48-32s-32 16-48 32l-160 160h0.245c-29.636 26.907-48.245 65.741-48.245 108.922 0 81.229 65.849 147.078 147.078 147.078 43.181 0 82.015-18.609 108.922-48.245 26.907 29.636 65.741 48.245 108.922 48.245 81.228 0 147.078-65.849 147.078-147.078z" />
<glyph unicode="&#x32;" d="M0-32h256v512h-256v-512zM160 416h64v-64h-64v64zM160 288h64v-64h-64v64zM160 160h64v-64h-64v64zM32 416h64v-64h-64v64zM32 288h64v-64h-64v64zM32 160h64v-64h-64v64zM288 320h224v-32h-224zM288-32h64v128h96v-128h64v288h-224z" />
<glyph unicode="&#xe000;" d="M496.576 471.2c-0.672 2.656-2.784 4.672-5.568 5.024-2.624 0.416-5.312-0.896-6.656-3.296-4.384-7.456-39.68-19.040-73.824-30.272-28.32-9.344-60.48-19.968-92.736-33.12-87.84-35.712-174.976-77.28-217.12-138.432-32.8-47.552-36.832-129.632-8.48-163.808-1.856-6.464-18.656-25.728-37.76-43.296-0.448-0.384-10.496-8.704-18.848-17.28l-22.912-21.152c-1.376-1.216-2.144-3.040-2.176-4.896s0.704-3.616 2.048-4.96l30.816-29.664c1.248-1.248 2.912-1.888 4.608-1.888 0.48 0 0.992 0.064 1.504 0.16 2.176 0.512 3.968 2.112 4.736 4.256 0.192 0.384 13.632 36.736 33.216 61.792 17.664 28.992 42.688 61.216 71.392 94.144l3.744 144.544c0.128 5.6 5.024 10.016 10.272 9.824 5.536-0.128 9.888-4.8 9.76-10.368l-3.104-120.928c19.008 20.928 39.104 41.76 59.392 62.176l3.808 108.096c0.192 5.568 4.736 10.048 10.336 9.76 5.568-0.224 9.888-4.864 9.696-10.464l-3.040-86.88c18.944 18.592 37.792 36.448 55.808 53.12l3.68 65.984c0.352 5.6 5.088 9.856 10.592 9.536 5.536-0.352 9.728-5.088 9.472-10.688l-2.592-45.28c57.28 52.288 101.952 89.536 106.752 93.568 4.288 3.52 10.592 2.944 14.112-1.376 3.488-4.32 2.88-10.656-1.408-14.208-1.12-0.928-41.248-34.464-94.848-83.136l66.144 9.632c5.44 0.768 10.528-3.040 11.328-8.576 0.8-5.504-3.040-10.656-8.48-11.456l-95.584-13.888c-19.456-18.016-40-37.472-60.672-57.664l114.912 11.52c5.44 0.512 10.368-3.488 10.944-9.056s-3.456-10.496-8.96-11.072l-139.744-13.984c-19.552-19.648-38.88-39.776-57.152-59.776l134.336 11.872c5.536 0.448 10.432-3.616 10.848-9.152 0.48-5.632-3.584-10.496-9.12-10.976l-154.848-13.664c-0.64-0.576-1.344-1.024-2.112-1.408-14.72-16.896-28.416-33.504-40.512-49.504 13.984-4.384 31.392-6.72 51.36-6.72 65.728 0 142.752 23.968 187.264 58.144 61.056 47.008 103.52 114.528 119.776 190.208 13.152 60.992 15.008 111.104 5.6 148.928z" />
<glyph unicode="&#xe001;" d="M491.008 322.304c13.12 60.928 14.976 111.072 5.568 148.864-0.672 2.656-2.784 4.672-5.568 5.024-2.624 0.416-5.312-0.896-6.656-3.296-4.384-7.456-39.68-19.040-73.824-30.272-28.32-9.344-60.48-19.968-92.736-33.12-42.336-17.152-84.384-35.808-121.408-57.28l-118.528 115.264-15.104-14.816 115.104-111.904c-31.712-20.32-58.848-43.072-77.184-69.664-32.8-47.552-36.832-129.632-8.48-163.808-1.856-6.464-18.656-25.728-37.76-43.296-0.448-0.384-10.496-8.704-18.848-17.28l-22.912-21.152c-1.376-1.216-2.144-3.040-2.176-4.896s0.704-3.616 2.048-4.96l30.816-29.664c1.248-1.248 2.912-1.888 4.608-1.888 0.48 0 0.992 0.064 1.504 0.16 2.176 0.512 3.968 2.112 4.736 4.256 0.192 0.384 13.632 36.736 33.216 61.792 17.664 28.992 42.688 61.216 71.392 94.144l3.744 144.544c0.128 5.6 5.024 10.016 10.272 9.824 5.536-0.128 9.888-4.8 9.76-10.368l-3.104-120.928c19.008 20.928 39.104 41.76 59.392 62.176l1.76 49.952 19.424-18.88-0.384-10.56c1.92 1.888 3.744 3.52 5.664 5.408l14.56-14.144c-1.952-1.952-3.904-3.776-5.92-5.696l10.656 1.088 18.912-18.4-52.416-5.28c-19.552-19.648-38.88-39.776-57.152-59.776l134.336 11.872c5.536 0.448 10.432-3.616 10.848-9.152 0.48-5.632-3.584-10.496-9.12-10.976l-154.848-13.664c-0.64-0.576-1.344-1.024-2.112-1.408-14.72-16.896-28.416-33.504-40.512-49.504 13.984-4.384 31.392-6.72 51.36-6.72 65.728 0 142.752 23.968 187.264 58.144 3.936 3.040 7.584 6.4 11.36 9.6l99.52-96.736 15.072 14.816-98.816 96.096c46.432 44.8 78.976 102.656 92.672 166.464zM241.632 308.224l1.056 29.632c0.192 5.568 4.736 10.048 10.336 9.76 5.568-0.224 9.888-4.864 9.696-10.464l-1.664-47.808-19.424 18.88zM280.672 270.272c11.68 11.232 23.552 22.72 34.816 33.152l3.68 65.984c0.352 5.6 5.088 9.856 10.592 9.536 5.536-0.352 9.728-5.088 9.472-10.688l-2.592-45.312c57.28 52.288 101.952 89.536 106.752 93.568 4.288 3.52 10.592 2.944 14.112-1.376 3.488-4.32 2.88-10.656-1.408-14.208-1.12-0.928-41.248-34.464-94.848-83.136l66.144 9.632c5.44 0.768 10.528-3.040 11.328-8.576 0.8-5.504-3.040-10.656-8.48-11.456l-95.584-13.888c-12.8-11.84-26.112-24.448-39.52-37.312l-14.464 14.080zM312.16 239.648l76.736 7.712c5.44 0.512 10.368-3.488 10.944-9.056s-3.456-10.496-8.96-11.072l-59.776-5.984-18.944 18.4z" />
<glyph unicode="&#xe600;" d="M367.509 178.793c-24.773 5.072-48.93-4.795-63.728-23.185-29.104 22.985-49.423 55.62-56.576 92.139 25.467 4.548 46.833 23.956 52.321 50.763 7.199 35.133-15.555 69.479-50.81 76.709-30.739 6.29-60.799-10.113-72.793-37.706l-0.632 0.123c-0.987-3.715-2.004-7.415-2.882-11.176-0.154-0.617-0.431-1.172-0.555-1.804-0.061-0.309-0.031-0.617-0.093-0.925-23.586-116.358 44.412-229.708 154.495-266.845 4.764-2.297 9.774-4.24 15.185-5.349 5.288-1.079 10.514-1.295 15.663-1.094 0.801-0.015 1.572 0.108 2.374 0.231 2.605 0.2 5.257 0.262 7.785 0.755l-1.433 2.189c0.354 0.308 0.801 0.447 1.125 0.801 4.887 5.226 4.579 13.411-0.678 18.283l-0.956 0.74c-3.916 3.623-9.465 4.378-14.059 2.358l-0.432 0.663c-1.325 0.139-2.636 0.139-3.962 0.401-3.7 0.755-7.045 2.158-10.236 3.823-32.358 10.467-52.351 24.927-59.489 30.816-41.483 30.986-70.28 76.431-79.961 127.395-1.588 6.136-8.093 35.394 0.124 76.986h0.046c0.124 0.925 0.093 1.834 0.278 2.76 4.316 21.042 24.927 34.608 46.047 30.276 21.119-4.317 34.747-24.897 30.446-45.938-3.885-18.992-21.058-31.756-39.895-30.924l-0.031-0.293c-6.613 0.771-12.857-3.438-14.213-10.082l-0.124-1.202c-0.786-3.839 0.339-7.523 2.559-10.405l-1.711-1.526c0.138-0.031 0.262-0.093 0.401-0.124 7.492-46.601 33.051-88.501 70.666-116.65-0.015-0.062-0.046-0.123-0.062-0.2l3.053 0.678c0.678-1.85 1.665-3.608 3.207-5.041l0.956-0.74c5.257-4.872 13.458-4.579 18.344 0.647 1.449 1.557 2.297 3.376 2.837 5.288 7.738 15.185 24.788 24.079 42.332 20.488 21.073-4.317 34.654-24.834 30.353-45.831-0.863-4.193-2.513-7.986-4.548-11.515l0.555-0.817c-0.216-0.2-0.478-0.277-0.678-0.478-4.579-4.902-4.301-12.61 0.632-17.173l0.909-0.693c3.638-3.376 8.772-4.070 13.057-2.25l0.878-1.295c1.11 1.279 2.096 2.683 3.13 4.039 0.046 0.046 0.108 0.062 0.154 0.123 0.123 0.139 0.154 0.324 0.277 0.462 5.241 7.153 9.25 15.354 11.146 24.603 7.214 35.163-15.539 69.509-50.795 76.724z" horiz-adv-x="563" />
<glyph unicode="&#xe601;" d="M332.185 92.063c5.883 5.883 5.883 15.406 0.010 21.279-5.878 5.878-15.401 5.883-21.294 0.005-5.878-5.893-5.873-15.411 0.005-21.289s15.39-5.878 21.279 0.005zM319.37 104.883c1.203 1.193 3.159 1.198 4.362-0.005 1.193-1.193 1.188-3.149-0.005-4.347-1.203-1.203-3.159-1.209-4.357-0.015-1.198 1.209-1.198 3.164 0 4.368zM238.889 368.988l-34.432-34.432c-9.994 2.191-20.813-0.445-28.565-8.197l-78.003-77.998c-12.114-12.114-12.114-31.826 0-43.935l165.616-165.612c12.109-12.114 31.815-12.109 43.93 0.005l78.003 77.998c12.114 12.114 12.119 31.821 0.005 43.935l-57.815 57.81 2.222 35.036 12.216 12.211c26.214 26.214 24.407 70.687-4.045 99.134-28.447 28.446-72.924 30.259-99.133 4.045zM106.353 212.885c-7.445 7.445-7.445 19.564 0 27.008l78.003 78.003c2.463 2.458 5.433 4.050 8.571 4.88-12.964-14.351-18.207-33.454-15.826-52.382l-64.128-64.128-6.62 6.62zM376.976 152.279c7.445-7.44 7.44-19.548-0.005-26.993l-78.003-78.008c-7.445-7.445-19.553-7.45-26.993-0.010l-18.299 18.299 105.006 105.006 18.294-18.294zM350.213 179.041l-105.006-105.011-123.771 123.771 58.762 58.762c3.635-11.054 9.938-21.596 18.887-30.551 23.742-23.741 58.998-29.363 85.658-14.269l30.556-30.556c1.659-1.659 4.152-2.202 6.344-1.372 0.814 0.317 1.531 0.778 2.12 1.372 1.009 1.009 1.644 2.375 1.741 3.861l1.116 17.587 23.593-23.593zM333.599 274.274l-13.808-13.808c-1.029-1.029-1.649-2.402-1.741-3.856l-3.651-57.585-24.535 24.535c-2.027 2.028-5.212 2.334-7.582 0.727-22.323-15.063-53.75-10.782-74.726 10.194-23.778 23.778-25.59 60.662-4.045 82.212l43.838 43.837c21.55 21.55 58.43 19.733 82.207-4.045 23.782-23.783 25.595-60.662 4.045-82.212zM285.123 304.702c-4.075 0.036-7.664-3.221-7.829-7.675v-0.589c-0.015-0.891-0.036-2.673-0.051-4.245-2.591-0.768-7.998-1.541-14.315-0.609-1.674 0.24-2.903 0.553-3.748 0.834l0.041 4.833c0.021 2.079-0.773 4.050-2.207 5.499-1.434 1.47-3.43 2.32-5.478 2.34l-25.431 0.251c-2.043 0.025-4.060-0.778-5.576-2.258-1.449-1.449-2.268-3.379-2.284-5.453l-0.010-1.168c-0.025-2.207-0.061-6.615-0.061-6.963 0.195-18.238 15.995-26.89 49.735-27.223 22.574-0.226 36.608 3.19 44.16 10.737 2.294 2.299 3.952 4.971 4.946 7.977 0.973 3.005 1.070 5.724 1.142 7.736 0.015 0.338 0.103 8.156 0.098 8.351-0.149 4.153-3.522 7.44-7.726 7.49l-25.406 0.133zM306.176 288.748c-0.046-1.239-0.092-2.652-0.543-4.030-0.394-1.208-1.060-2.268-2.027-3.241-3.43-3.43-12.38-7.465-35.574-7.235-37.724 0.374-37.837 10.885-37.888 15.606 0 0.215 0.016 1.802 0.025 3.471l17.049-0.164-0.030-3.63c0.077-2.893 1.997-8.023 14.003-9.799 9.022-1.321 21.079-0.251 25.661 4.327 0.926 0.927 1.587 1.981 1.961 3.118 0.174 0.522 0.322 1.408 0.348 1.961 0.015 0.261 0.036 1.874 0.057 3.569l17.024-0.082c-0.031-1.69-0.051-3.364-0.067-3.87zM256.317 311.608c0.051 0.051 0.098 0.098 0.138 0.143 2.969 3.308 7.26 5.12 11.755 5.12 4.49 0 8.653-1.817 11.75-5.125 2.253-2.411 6.046-2.534 8.453-0.271 0.051 0.041 0.103 0.092 0.144 0.133 2.268 2.274 2.35 5.959 0.128 8.325-5.289 5.658-12.764 8.899-20.48 8.899-7.711 0-15.252-3.154-20.48-8.899-2.268-2.417-2.14-6.201 0.272-8.458 2.361-2.207 6.047-2.14 8.32 0.133zM239.959 333.578c-2.288-2.396-2.207-6.18 0.185-8.473 2.391-2.268 5.99-2.089 8.464 0.194 5.268 5.489 12.15 8.397 19.604 8.402 7.454 0 14.418-2.985 19.605-8.402 2.284-2.386 6.072-2.462 8.458-0.184 0.036 0.036 0.067 0.061 0.098 0.092 2.294 2.299 2.345 6.016 0.092 8.371-7.465 7.793-17.5 12.089-28.252 12.089-10.757 0.010-20.777-4.368-28.252-12.089z" />
<glyph unicode="&#xe602;" d="M324.299 70.462c-0.786 4.82-5.341 8.086-10.125 7.3-4.811-0.786-8.086-5.323-7.3-10.125l8.122-50-131.187 0.106 8.086 49.894c0.777 4.811-2.489 9.349-7.3 10.125-4.802 0.786-9.349-2.49-10.125-7.3l-8.625-53.195c-0.071-0.468-0.115-0.935-0.115-1.413 0-8.748 7.83-15.872 17.452-15.872h132.431c9.622 0 17.452 7.124 17.452 15.872 0 0.476-0.036 0.945-0.115 1.413l-8.651 53.195zM429.63 432.64h-360.51c-21.424 0-38.859-17.425-38.859-38.841v-250.642c0-21.425 17.434-38.85 38.859-38.85h360.51c21.433 0 38.877 17.435 38.877 38.85v250.642c0 21.416-17.444 38.841-38.877 38.841zM69.111 414.985h360.51c11.706 0 21.221-9.508 21.221-21.186v-218.077h-402.935v218.077c0 11.679 9.516 21.186 21.204 21.186zM429.63 121.953h-360.51c-11.688 0-21.204 9.507-21.204 21.195v14.901h402.935v-14.901c0-11.679-9.525-21.195-21.221-21.195zM274.132 272.075c-2.233 2.268-6.065 2.419-8.545 0.115l-1.289-1.262c-2.366-2.313-7.362-7.203-7.954-7.76 0.089 0.089 0.203 0.168 0.123 0.221-4.105 0-16.358 8.112-25.459 20.339-5.111 6.877-5.888 10.796-5.835 11.846l8.951 8.766c1.148 1.13 1.801 2.692 1.819 4.281 0.018 1.615-0.618 3.196-1.739 4.326l-30.314 30.914c-1.121 1.156-2.692 1.827-4.343 1.836-1.598 0-3.107-0.618-4.273-1.748l-4.017-3.946c-2.542-2.498-5.35-5.253-5.429-5.332l-0.335-0.336c-18.635-19.033-10.284-44.5 27.074-82.608 25.124-25.618 45.056-38.074 60.946-38.074v0c4.405 0 8.554 0.971 12.332 2.878 3.911 1.978 6.718 4.608 8.554 6.338l0.565 0.529c0.062 0.053 9.278 9.022 9.728 9.499 2.233 2.383 2.189 6.091-0.115 8.439l-30.447 30.738zM290.807 227.884l-0.582-0.548c-1.695-1.589-4.017-3.77-7.151-5.35-2.949-1.492-6.082-2.216-9.569-2.216v0c-13.965 0-33.007 12.191-56.585 36.246-49.823 50.821-33.881 67.099-27.083 74.046l0.327 0.327c0.212 0.212 2.905 2.86 5.358 5.261l3.99 3.946 30.323-30.887-9.349-9.163c-3.107-3.275-1.006-10.549 5.614-19.456 9.366-12.571 22.978-22.793 30.358-22.793 1.094 0 2.084 0.22 2.913 0.644 0.468 0.238 0.892 0.538 1.183 0.83 0.529 0.494 5.606 5.455 8.007 7.803l1.209 1.218 30.464-30.676c-0.459-0.503-8.933-8.774-9.428-9.233zM295.248 292.644c-0.053-1.686 1.262-3.099 2.957-3.152 0.036 0 0.070 0 0.097 0 1.642 0 3.002 1.307 3.055 2.957 0.423 12.889-4.334 24.982-13.401 34.039-9.066 9.066-21.186 13.859-34.039 13.401-1.686-0.053-3.010-1.466-2.957-3.152 0.053-1.686 1.404-3.098 3.151-2.948 11.132 0.415 21.663-3.76 29.519-11.617 7.856-7.874 11.979-18.353 11.617-29.529zM303.13 341.663c-13.109 13.109-30.579 20.057-49.196 19.695-1.686-0.036-3.028-1.439-2.993-3.125 0.036-1.668 1.395-2.993 3.054-2.993 0.026 0 0.044 0 0.071 0 16.922 0.38 32.821-5.985 44.738-17.903 11.917-11.917 18.273-27.807 17.902-44.738-0.036-1.686 1.298-3.081 2.993-3.125 0.026 0 0.044 0 0.070 0 1.659 0 3.019 1.324 3.055 2.992 0.406 18.618-6.586 36.087-19.695 49.196zM276.621 289.492c0.070 0 0.141-0.009 0.203-0.009 1.598 0 2.94 1.236 3.046 2.851 0.468 7.062-2.127 13.974-7.106 18.962-4.979 4.979-11.882 7.556-18.962 7.115-1.686-0.115-2.957-1.563-2.851-3.248 0.106-1.686 1.518-2.887 3.249-2.851 5.297 0.362 10.496-1.589 14.239-5.332 3.743-3.743 5.685-8.925 5.332-14.239-0.106-1.686 1.174-3.143 2.851-3.249z" horiz-adv-x="499" />
<glyph unicode="&#xe603;" d="M427.909 209.7v0l-202.107 202.117c-8.121 8.121-18.953 12.588-30.508 12.588-11.555 0-22.395-4.476-30.517-12.597l-106.778-106.779c-16.826-16.826-16.826-44.2 0-61.025l8.615-8.615v-0.009l218.095-218.077c8.113-8.122 18.944-12.597 30.5-12.597 11.564 0 22.396 4.476 30.526 12.606l106.769 106.769c8.13 8.122 12.606 18.962 12.606 30.517 0.009 11.555-4.467 22.387-12.597 30.508l-24.603 24.594zM91.586 235.387l142.839 142.839 168.51-168.519-142.83-142.839-168.518 168.518zM70.489 256.486c-9.94 9.94-9.94 26.121 0 36.060l106.778 106.779c4.793 4.793 11.202 7.424 18.035 7.424s13.242-2.63 18.026-7.415l8.625-8.624-142.839-142.839-8.624 8.615zM440.020 136.563l-106.769-106.769c-9.587-9.587-26.483-9.578-36.060-0.009l-24.603 24.603 142.839 142.839 24.603-24.603c4.793-4.784 7.424-11.194 7.424-18.026s-2.639-13.241-7.433-18.035zM364.597 125.811c-5.27 0-10.54-2.012-14.565-6.038-8.051-8.060-8.042-21.098 0-29.14 4.026-4.026 9.286-6.029 14.556-6.029 5.27 0 10.54 2.012 14.575 6.038 8.051 8.060 8.051 21.080 0.009 29.131-4.026 4.026-9.296 6.038-14.575 6.038zM366.68 103.142c-0.724-0.724-1.536-0.874-2.092-0.874s-1.36 0.15-2.075 0.865c-1.147 1.147-1.147 3.019 0 4.166 0.715 0.715 1.536 0.865 2.092 0.865 0.556 0 1.368-0.15 2.084-0.865 1.165-1.174 1.156-3.002-0.009-4.158zM313.335 364.8c22.731 0.671 44.324-7.689 60.399-23.764s24.514-37.526 23.764-60.399c-0.168-4.882 3.654-8.96 8.527-9.11 0.106-0.009 0.203-0.009 0.3-0.009 4.74 0 8.651 3.769 8.81 8.536 0.918 27.807-9.349 53.893-28.919 73.463-19.562 19.571-45.612 29.943-73.463 28.919-4.873-0.159-8.687-4.228-8.527-9.11 0.15-4.873 4.096-8.828 9.11-8.528zM318.738 415.514c35.231 0.954 67.849-12.368 92.478-36.996s37.764-57.477 37.005-92.487c-0.106-4.873 3.76-8.907 8.642-9.013 0.062 0 0.132 0 0.185 0 4.793 0 8.721 3.831 8.827 8.642 0.865 39.874-14.115 77.277-42.178 105.349-28.072 28.071-65.712 43.22-105.339 42.169-4.882-0.115-8.74-4.149-8.634-9.013 0.115-4.882 4.087-8.616 9.013-8.651zM187.481 70.612c-22.907-0.627-44.323 7.689-60.407 23.764-16.075 16.084-24.514 37.535-23.764 60.407 0.168 4.882-3.654 8.96-8.528 9.11-4.714 0.397-8.951-3.654-9.11-8.527-0.918-27.807 9.349-53.892 28.919-73.472 18.776-18.767 43.547-28.981 70.065-28.981 1.13 0 2.278 0.017 3.417 0.062 4.873 0.159 8.686 4.228 8.528 9.11-0.167 4.873-4.352 8.898-9.119 8.527zM182.078 19.897c-34.807-0.821-67.849 12.358-92.478 36.997-24.638 24.638-37.773 57.485-37.005 92.486 0.106 4.873-3.761 8.907-8.642 9.013-4.74-0.036-8.907-3.778-9.013-8.642-0.874-39.856 14.107-77.268 42.178-105.349 27.286-27.295 63.409-42.204 102.038-42.204 1.095 0 2.207 0.009 3.302 0.036 4.881 0.115 8.739 4.149 8.633 9.013-0.097 4.882-4.158 8.413-9.013 8.651zM291.487 189.361c11.962 14.954 12.368 32.371 0.803 43.944-11.334 11.326-24.788 11.238-44.561-0.812l-22.184 22.175c4.546 2.737 9.869 4.573 16.181 5.57 2.295 0.318 3.628 1.413 4.546 2.331 3.292 3.284 3.381 8.342 0.203 11.52-1.951 1.96-4.529 2.639-7.918 2.092-9.339-1.739-16.755-4.891-23.764-10.108l-1.819 1.81c-2.692 2.692-7.777 2.692-10.47 0-1.342-1.342-2.11-3.249-2.11-5.235s0.768-3.884 2.11-5.235l1.518-1.527c-11.776-14.389-12.252-31.885-0.892-43.22 11.467-11.458 24.153-11.582 44.332 0.406l22.731-22.722c-6.515-4.485-13.868-6.859-23.446-7.654-1.060-0.115-3.089-0.565-4.846-2.33-1.51-1.51-2.366-3.514-2.401-5.659-0.044-2.189 0.768-4.237 2.295-5.747 1.633-1.633 3.593-2.454 5.844-2.454 0.521 0 1.042 0.044 1.5 0.115 12.35 1.492 22.731 5.596 31.647 12.517l5.985-5.976c2.692-2.692 7.777-2.692 10.469 0 2.834 2.834 2.834 7.627 0 10.469l-5.755 5.729zM280.452 199.76l-20.789 20.798c10.469 5.623 15.625 6.073 21.318 0.397 5.5-5.509 5.243-13.462-0.529-21.195zM235.414 225.113c-5.27-2.772-9.313-4.079-12.579-4.079-3.089 0-5.614 1.192-8.404 3.981-5.2 5.208-4.846 12.994 0.732 20.357l20.25-20.26z" horiz-adv-x="499" />
<glyph unicode="&#xe604;" d="M140.994 417.404l-117.266-112.781c-18.212-17.514-18.776-46.575-1.262-64.786l239.448-248.991c17.505-18.202 46.565-18.767 64.777-1.253l117.266 112.781c18.212 17.514 18.785 46.565 1.28 64.777l-239.448 248.991c-17.523 18.212-46.583 18.776-64.794 1.262zM432.499 154.916c10.761-11.185 10.399-29.051-0.786-39.813l-117.266-112.781c-11.193-10.761-29.051-10.416-39.813 0.768l-26.457 27.507 157.873 151.817 26.447-27.498zM393.808 195.151l-157.873-151.817-178.944 186.068 157.873 151.826 178.944-186.077zM202.629 393.948l-157.873-151.817-9.569 9.958c-10.761 11.194-10.416 29.060 0.777 39.821l117.266 112.781c11.194 10.761 29.060 10.416 39.821-0.777l9.578-9.966zM364.712 67.416c8.845 8.51 9.119 22.546 0.618 31.382-8.492 8.827-22.537 9.119-31.391 0.609-8.845-8.51-9.101-22.563-0.609-31.391 8.501-8.837 22.528-9.101 31.382-0.601zM346.183 86.687c1.81 1.739 4.688 1.677 6.426-0.123 1.73-1.801 1.668-4.678-0.132-6.418-1.81-1.739-4.688-1.686-6.426 0.115-1.73 1.801-1.668 4.688 0.132 6.426zM312.382 396.376c-4.882-0.070-8.784-4.069-8.713-8.942 0.062-4.881 4.070-8.784 8.942-8.713 25.988 0.336 50.149-9.711 68.043-28.319 17.894-18.609 26.995-43.141 25.644-69.094-0.256-4.864 3.478-9.022 8.351-9.269 2.534-0.132 4.882 0.821 6.577 2.454 1.563 1.5 2.569 3.575 2.692 5.905 1.625 30.87-9.225 60.089-30.543 82.255s-50.079 34.137-80.993 33.721zM319.762 453.173c-4.864 0-8.819-3.964-8.81-8.854 0.009-4.873 3.973-8.819 8.854-8.81 39.591 0.089 76.421-15.493 103.716-43.873 27.295-28.38 41.428-65.792 39.795-105.348-0.203-4.873 3.584-8.987 8.457-9.19 2.507-0.106 4.811 0.848 6.488 2.454 1.589 1.527 2.604 3.628 2.701 5.994 1.836 44.421-14.045 86.431-44.712 118.325-30.667 31.894-72.033 49.399-116.489 49.302z" horiz-adv-x="499" />
<glyph unicode="&#xe605;" d="M153.672 58.731c-0.016 0-0.061 0-0.077 0-10.967 0-17.715 4.695-21.447 8.642-9.226 9.748-8.745 23.7-8.653 25.262l-0.016 24.028-3.016 0.062c-31.007 0-56.443 25.457-56.443 56.73v89.093c0 31.273 25.442 56.729 56.714 56.729h200.699c31.273 0 56.714-25.457 56.714-56.729v-89.098c0-31.467-25.442-57.063-56.714-57.063h-95.836l-38.026-39.014c-5.581-6.041-17.193-18.601-33.899-18.642zM120.73 296.238c-18.57 0-33.674-15.119-33.674-33.69v-89.098c0-18.57 15.104-33.69 33.674-33.69l14.536-0.327c6.256-0.149 11.249-5.264 11.249-11.52v-35.911c-0.077-2.355 0.435-6.794 2.401-8.822 0.358-0.389 1.351-1.408 4.679-1.408v-11.52l0.030 11.52c6.646 0.015 12.887 6.764 17.008 11.233l2.145 2.279 39.737 40.678c2.161 2.222 5.13 3.466 8.233 3.466h100.679c18.57 0 33.674 15.252 33.674 34.022v89.098c0 18.57-15.104 33.69-33.674 33.69h-200.699zM397.553 211.671c-6.359 0-11.52 5.161-11.52 11.52s5.161 11.52 11.52 11.52c15.104 0 27.392 12.283 27.392 27.392v61.379c0 29.972-12.779 42.752-42.752 42.752h-157.44c-15.089 0-27.376-12.283-27.376-27.392 0-6.359-5.161-11.52-11.52-11.52s-11.52 5.161-11.52 11.52c0 27.812 22.62 50.432 50.417 50.432h157.44c43.034 0 65.792-22.754 65.792-65.792v-61.379c0-27.812-22.62-50.432-50.432-50.432zM281.093 225.772h-136.32c-6.359 0-11.52 5.161-11.52 11.52s5.161 11.52 11.52 11.52h136.32c6.359 0 11.52-5.161 11.52-11.52s-5.156-11.52-11.52-11.52zM221.082 175.851h-76.308c-6.359 0-11.52 5.161-11.52 11.52s5.161 11.52 11.52 11.52h76.308c6.359 0 11.52-5.161 11.52-11.52s-5.161-11.52-11.52-11.52z" />
<glyph unicode="&#xe606;" d="M445.44 305.505c0 22.713-7.147 38.466-17.546 48.865-0.036 0.041-0.057 0.098-0.098 0.138-0.558 0.676-1.198 1.26-1.849 1.813-0.021 0.020-0.041 0.046-0.072 0.067-0.19 0.164-0.379 0.322-0.579 0.476-11.418 9.958-26.071 14.136-39.623 14.136-1.776 0-3.154-0.071-4.014-0.143l-239.36 0.143c-18.882 0-34.069-4.802-45.353-14.203-0.118-0.092-0.236-0.179-0.353-0.276-1.869-1.582-3.65-3.257-5.299-5.099-15.36-17.162-14.761-38.825-14.341-44.201l-0.138-150.841c0-31.416 13.471-47.309 24.77-55.122 16.215-11.197 34.56-10.578 39.004-10.24l236.057-0.133c22.077 0 39.481 6.487 51.733 19.267 17.495 18.253 17.014 41.861 16.926 43.837-0.005-0.005 0.133 119.45 0.133 151.516zM382.32 340.562l1.541 0.077c0.231 0.015 0.87 0.062 1.813 0.062 0.615 0 1.142-0.118 1.736-0.138l-126.238-105.237-125.957 104.996c2.243 0.231 4.577 0.379 7.081 0.379l240.025-0.138zM139.929 121.329l-1.541-0.092c-1.004-0.057-11.064-0.937-19.594 4.971-1.106 0.758-2.115 1.644-3.067 2.611l91.648 76.416-9.702 11.632-89.088-74.271c-0.968 4.034-1.485 8.617-1.485 13.778l0.144 151.49-0.103 1.695c0 0.087-0.502 6.405 1.849 13.163l142.474-118.763c2.806-2.345 6.257-3.517 9.697-3.517 3.451 0 6.902 1.173 9.702 3.517l141.881 118.277c1.546-4.71 2.396-10.235 2.396-16.743 0-32.051-0.133-151.481-0.113-152.151 0-0.092 0.062-6.154-2.622-12.872l-93.896 78.269-9.707-11.638 94.49-78.771c-6.303-4.731-15.227-7.147-26.649-7.147l-236.713 0.144z" />
<glyph unicode="&#xe607;" d="M439.95 397.185l-161.819 66.875c-20.238 8.363-43.638-1.354-51.992-21.575l-141.996-343.579c-8.363-20.229 1.346-43.62 21.594-51.992l161.828-66.885c20.238-8.363 43.629 1.337 51.992 21.575l141.996 343.579c8.354 20.23-1.363 43.639-21.603 52.001zM195.225 34.261c-12.21 5.048-18.008 19.002-12.969 31.194 5.040 12.183 19.001 17.999 31.212 12.959 12.21-5.048 17.99-19.029 12.959-31.212-5.030-12.192-18.983-17.981-31.203-12.942zM313.839 58.7l-185.363 76.611 113.376 274.31 185.364-76.611-113.376-274.31z" />
<glyph unicode="&#xe608;" d="M439.95 397.185l-161.819 66.875c-20.238 8.363-43.638-1.354-51.992-21.575l-58.188-140.795v166.154h-9.031v-490.804h9.031v44.171l99.613-41.163c20.238-8.363 43.629 1.337 51.992 21.575l141.996 343.579c8.354 20.212-1.363 43.62-21.603 51.983zM226.436 47.202c-5.040-12.192-18.993-17.981-31.203-12.942-12.21 5.048-18.008 19.002-12.959 31.193 5.040 12.183 19.001 17.999 31.212 12.959 12.201-5.048 17.981-19.029 12.951-31.212zM313.839 58.7l-145.898 60.3v111.805l73.91 178.815 185.363-76.611-113.377-274.31z" />
<glyph unicode="&#xe609;" d="M96 416l320-192-320-192z" />
<glyph unicode="&#xf003;" d="M475.429 50.286v219.429q-9.143-10.286-19.714-18.857-76.571-58.857-121.714-96.571-14.571-12.286-23.714-19.143t-24.714-13.857-29.286-7h-0.572q-13.714 0-29.286 7t-24.714 13.857-23.714 19.143q-45.143 37.714-121.714 96.571-10.571 8.571-19.714 18.857v-219.429q0-3.714 2.714-6.429t6.429-2.714h420.571q3.714 0 6.429 2.714t2.714 6.429zM475.429 350.571v7t-0.143 3.714-0.857 3.571-1.571 2.571-2.571 2.143-4 0.714h-420.571q-3.714 0-6.429-2.714t-2.714-6.429q0-48 42-81.143 55.143-43.429 114.571-90.571 1.714-1.429 10-8.429t13.143-10.714 12.714-9 14.429-7.857 12.286-2.571h0.572q5.714 0 12.286 2.571t14.429 7.857 12.714 9 13.143 10.714 10 8.429q59.429 47.143 114.571 90.571 15.429 12.286 28.714 33t13.286 37.571zM512 361.143v-310.857q0-18.857-13.429-32.286t-32.286-13.429h-420.571q-18.857 0-32.286 13.429t-13.429 32.286v310.857q0 18.857 13.429 32.286t32.286 13.429h420.571q18.857 0 32.286-13.429t13.429-32.286z" />
<glyph unicode="&#xf095;" d="M402.143 125.714q0-7.714-2.857-20.143t-6-19.571q-6-14.286-34.857-30.286-26.857-14.571-53.143-14.571-7.714 0-15 1t-16.429 3.571-13.571 4.143-15.857 5.857-14 5.143q-28 10-50 23.714-36.571 22.571-75.571 61.571t-61.571 75.571q-13.714 22-23.714 50-0.857 2.571-5.143 14t-5.857 15.857-4.143 13.571-3.571 16.429-1 15q0 26.286 14.571 53.143 16 28.857 30.286 34.857 7.143 3.143 19.571 6t20.143 2.857q4 0 6-0.857 5.143-1.714 15.143-21.714 3.143-5.429 8.571-15.429t10-18.143 8.857-15.286q0.857-1.143 5-7.143t6.143-10.143 2-8.143q0-5.714-8.143-14.286t-17.714-15.714-17.714-15.143-8.143-13.143q0-2.571 1.429-6.429t2.429-5.857 4-6.857 3.286-5.429q21.714-39.143 49.714-67.143t67.143-49.714q0.571-0.286 5.429-3.286t6.857-4 5.857-2.429 6.429-1.429q5.143 0 13.143 8.143t15.143 17.714 15.714 17.714 14.286 8.143q4 0 8.143-2t10.143-6.143 7.143-5q7.143-4.286 15.286-8.857t18.143-10 15.429-8.571q20-10 21.714-15.143 0.857-2 0.857-6z" horiz-adv-x="402" />
<glyph unicode="&#xf0ac;" d="M340.428 324.857q3.143 2 7.143 6.286v-0.286q0-0.571-2.714-2.857t-3.286-3.429q-0.286 0.286-1.143 0.286zM338.714 324.571q-0.286 0.286-0.714 0.857t-0.429 0.857q0.857-0.571 2.857-1.429-1.714-1.143-1.714-0.286zM207.571 376.857q-4.571 0.571-7.429 1.429 0.286 0 1.857-0.286t3-0.571 2.571-0.571zM220.428 387.429q2 1.143 3.857 0.714t2.143-2.143q-1.429 0.857-6 1.429zM218.142 385.714l-0.857 0.571q-0.571 0.857-1.571 1.429t-1.286 0.571q0.571-0.286 6-0.857-1.714-1.143-2.286-1.714zM189 409.714v0.571q0.286-0.571 0.857-1.571t0.857-1.571zM159 398.286q0-0.571-0.286-0.571l-0.286 0.571h0.571zM266.143 100v0zM219 443.429q59.714 0 110.143-29.429t79.857-79.857 29.429-110.143-29.429-110.143-79.857-79.857-110.143-29.429-110.143 29.429-79.857 79.857-29.429 110.143 29.429 110.143 79.857 79.857 110.143 29.429zM353.857 87.429l1.429 1.429q-2 2.857-8.286 3.429 0.286 3.429-4 7.571t-7.714 4.429q0 1.143-3 3.143t-5 2.286q-2.571 0.571-7.714-2.571-2-0.857-1.143-1.429-0.857 0.857-3.429 3.143t-4.571 3.143q-0.571 0.286-2.143 0.286t-2.429 0.571q-0.286 0.286-1.714 1.286t-2 1.286-1.857 0.857-2.143 0.429-2.143-0.714-2.429-1.714-1.286-4.429-0.714-4.143q-2.286 1.714-0.143 5.714t0.429 5.714q-2 2-6 0.143t-6-4.429q-0.286-0.286-2.714-1.571t-3.286-2.143q-1.143-1.714-2.571-5t-1.714-3.857q0 0.571-0.714 1.857t-0.714 1.857q-3.429-0.571-4.571 0.857 1.429-4.571 2.286-4.857l-1.143 0.571q-0.286-1.714 0.857-4.286t1.143-3.143q0.286-1.429-0.429-3.714t-0.714-3.143q0-0.571 1.429-3.143 1.143-5.429-0.571-9.143 0-0.286-1-2t-1.857-3.143l-0.571-1.429-0.571 0.286q-0.286 0.286-0.571 0-0.286-1.714-2.571-3.714t-2.857-3.143q-4.286-6.571-2.571-10.857 0.857-2.286 2.857-2.857 0.857-0.286 0.857 0.571 0.286-2.571-3.143-7.714 0.286-0.286 1.143-0.857-4.857 0-2.857-4 57.714 10.286 100.571 51.714h-0.857zM193.857 140.286q4.571 0.857 8.714-4.571t6.429-6.571q11.714-5.714 16.857-3.143 0-2.571 4-8 0.857-1.143 1.857-3.286t1.571-3q1.429-2 5.429-4.571t5.429-4.571q1.714 0.857 2.571 2.571 3.714-10 6.857-9.714 1.429 0 2.286 2.286 0-0.286-0.143-0.857t-0.429-0.857q2 4.286 1.429 7.429l1.714 1.143q1.429 1.143 1.429 1.429-1.714 1.714-2.571-0.857-8.571-4-13.714 6.286-0.571 0.857-1.286 2.286t-1.429 3.429-0.429 3.286 1.714 1.286q3.143 0 3.571 0.429t-0.714 1.714-1.143 2.143q-0.286 1.143-0.429 3.571t-0.429 3.571l-1.429 1.714q-1.429 1.714-3.286 3.857t-2.143 2.714q-1.143-2.857-4.714-2.429t-5.286 2.714q0.286-0.571-0.143-1.857t-0.429-1.857q-4 0-4.857 0.286 0.286 1.714 0.857 6t1.143 6.286q0.286 1.429 1.571 3.857t2.286 4.429 1.286 4-1.286 3-5.286 0.714q-5.714-0.286-8.286-6.286-0.286-0.857-0.857-3.286t-1.429-3.571-2.571-2q-2.286-0.857-7.714-0.571t-7.429 1.429q-4 2.286-6.857 8.714t-3.143 11.857q0 2.857 0.857 7.857t0.857 7.714-1.714 7.571q0.857 0.571 2.857 3t3.143 3.286q0.571 0.571 1.429 0.571h1.429t1.143 0.571 0.857 1.714q-0.286 0.286-1.143 0.857-0.857 0.857-1.143 0.857 1.143-0.857 5.429-0.286t5.429 0.571q0 0.286 6.286 0 4.857-3.714 6.857 0.571 0 0.286-0.714 3t-0.143 4.143q1.429-8.286 9.143-2.857 0.857-1.143 4.714-1.714t5.286-1.429q0.857-0.571 2-1.571t1.714-1.429 1.714-0.143 2.571 2q3.143-4.857 3.714-7.143 3.143-12.286 5.714-13.714 2.286-0.571 3.571-0.571t1.429 3 0 4.429-0.429 3.714l-0.571 10.571q-4.571 0.857-5.714 3.571t0.429 5.714 4.714 5.571q0.286 0.286 4.714 2.286t6.143 3.429q6.857 5.429 4.857 11.143 2.571-0.571 3.143 2.571l-1.429 0.857q-1.143 0.857-2.286 1.571t-1.429 0.429q3.143 2 0.571 5.143 1.429 0.857 2.286 3.286t2.571 3.286q2.571-4 6.286-0.857 2.286 2.571 0.571 5.143 1.429 2.286 6.286 3.286t5.714 2.714q1.429-0.286 2 0t0.571 1.286v2.143t0.286 2.429 0.857 2.143q1.143 1.714 4.571 3t4 1.571l5.429 3.429q1.143 1.143 0 1.143 5.143-0.571 9.143 3.143 3.714 3.429-1.429 6.571 0.571 2-1.143 3t-4.571 1.571q0.857 0.286 3.429 0.143t3.429 0.429q4.286 3.143-2 4.857-5.714 1.429-13.429-3.714-0.857-0.571-3.714-3.429t-4.857-3.143q4.286 5.143 1.429 6.286 2.286-0.286 6.429 2.571t4.429 3.143q1.143 0.571 3 0.714t2.429 0.429q20.286 7.143 26.286-0.286 2.286 3.143 3.143 4.286t2.714 2.571 4.429 2.286q6 2 6.571 2.571l0.286 6.571q-3.429-0.286-5.143 2.286t-2 6.286l-1.714-2.286q0 1.714-1 2.143t-2.143 0.143-2.714-0.571-2.143 0q-2.571 0.571-5.571 4.429t-4.143 4.714q2.571 0 2.571 1.429-0.571 1.429-2.857 2.286 0.286 1.714-0.571 2.286t-2.571 0q-0.571 3.429-0.286 3.714-1.714 0.286-3.143 3.143t-2.286 2.857q-0.571 0-1.286-0.571t-1.429-1.571l-1.429-2t-1-1.571l-0.571-0.571q-3.429 1.714-6.857-2.857-2.571 0.286-4.857-0.571 4.286 1.714 0.571 3.714-3.143 1.429-6 0.571 3.429 1.429 2.857 4t-3.429 4.571q0.286 0 1.143-0.286t1.143-0.286q-0.286 1.429-2.714 2.714t-5.571 2.571-4 1.857q-2 1.429-10.286 3t-10.286 0.429q-1.429-0.857-1.714-1.714t0.429-2.429 1-2.429q1.714-6.571 1.429-7.714-0.286-0.857-2.429-2.286t-1.571-3.429q0.286-1.143 3.286-2.857t3.571-3.429q1.429-3.714-1.143-7.143-1.143-1.429-4.286-3.143t-4-2.857q-1.429-1.429-1-3.286t0.143-2.714q0.286 0.286 0.286 0.714t0.286 0.714q0-3.714 3.143-6.286 2.286-1.714-4.571-5.143-5.714-3.143-5.714-1.143 0.286 2.286-2.143 4.571t-3 3.429-1 5.429-2.714 6q-1.714 1.143-5.429 1.143t-5.143-1.429q0 2.857-14 8.571-4.857 2.286-16.571 1.143 2 0.286 0 4.857-2.286 4.571-6 3.429-2.286 7.143-1.143 10 0.571 1.429 2.571 4t2.571 4.286q0.286 0.857 4.429 1.714t4.714 2.286q0.286 1.143-0.714 1.857t-2.714 1.286q15.143-1.714 18 5.143 1.429 2.571 0.857 4 0-0.286 0.571-0.286t0.571-0.286q3.429 0.857 2 4.857 5.429 2.286 7.429 2.286 1.429-0.286 3.143-1.714t2.857-1.429q4.857-0.857 6.143 2.857t-2.714 6.571q2-1.143 2 1.714-0.286 3.714-2 5.429-0.857 0.571-1.857 0.714t-1.857 0-2 0.143q-0.286 0-2.286 0.571-0.286-0.286-0.571-0.286h-2.286q-1.143-0.571-1.143-1.429v-0.286q-0.286-0.857 1.143-1.714l1.429-0.286 0.857-0.571q-0.286 0-0.714-0.714t-0.714-0.714q0-0.857 0.857-1.429-0.571-0.286-4-2.143t-4.857-3q-0.286-0.286-1.143-0.714t-1.143-0.714q-0.571-0.286-1.143 0.571t-1.143 2.571-1.143 3.286-1.286 2.857-1.571 1.286q-3.429 0-5.143-4.857 0.857 2.857-3.714 5t-7.143 2.143q5.714 4.286-2.571 8.571l-0.286 0.286q-8.571-1.143-12.857-2-0.571-1.714 0.857-3.429-0.286-2 1.714-2.571 0-0.286 0.143-0.286t0.143-0.286q0 0.286-0.143 0.286t-0.143 0.286q0.857-0.286 3-0.429t2.714-0.429q0.857-0.286 1.286-0.571l2.143-1.429t1.571-1.714-0.714-1.429q-0.571-0.286-2.571-1.143t-3.571-1.571-1.857-1q-0.857-1.429 0-4.571t-0.571-4.286q-1.429 1.429-2.857 5.286t-2.286 5q2.286-2.571-8.571-1.714l-2.286 0.286q-1.143 0-4.286-0.571t-4.571-0.286q-2 0-8.286 1.714 2 4.857 1.429 7.143 1.429 0 2 0.571l-1.714 0.857q-0.857-0.286-7.143-2.571 0.571-0.857 2.286-2.714t2.571-3.286q-6.286 1.714-7.714-0.571 0-0.286-2.571 0-7.143 0.286-6.857-2 0.286-1.143 2.571-3.429 0-2.571-0.286-2.571-7.714 6.286-8.571 6.571-49.143-23.714-78.857-70.857 0.286-0.571 0.714-3.143t1-2.429 3.143 1.286q2.571-2.571 0.857-6 0.571 0.571 10.286-6 16-11.429 6.286-15.143v1.571t0.286 1.857q-2.571-0.286-5.429 1.429-0.857-1.714 0.143-5.714t3.286-4q-2.286 0-3-4.857t-0.714-11-0.286-7.286l0.571-0.286q-0.857-3.714 1.714-10.714t6.857-5.857q-1.143-5.143 1.429-6-0.286-1.143 0-2.286t1.286-2.429 1.714-2l3.857-3.857q8-3.143 11.714-8.286 1.143-1.714 3-7t4.429-7.286q-0.571-1.714 2.857-6.143t3.143-7.286q-0.286 0-0.714-0.143t-0.714-0.143q0.857-2.286 4.714-4.571t4.714-4q0.571-0.857 0.714-3t0.857-3.429 2.429-0.714q0.857 6.857-7.429 19.429-4.571 7.714-5.143 8.857-0.857 1.429-1.571 4.714t-1.286 4.429q7.714-2.571 7.429-3.714-1.429-2.857 7.429-14.857 0.571-0.857 2.857-2.857t3.143-3.429q0.857-1.143 2.714-4.143t3-4.429q-0.286 0-0.857-0.571l-0.857-0.857q1.143-0.571 2.571-1.429t2.286-1.286 2.143-1.429 2.143-2.143q4.571-5.143 5.714-9.429 0.286-1.143 0.143-4.429t0.429-4.714q0.571-1.714 1.714-3.143t3.286-2.857 3.286-2 4.143-1.857 3.286-1.571q0.571-0.286 5.143-3.143t7.143-4q2.857-1.143 4.714-1.286t4.571 0.714 4.429 1.143z" horiz-adv-x="438" />
<glyph unicode="&#xf0d5;" d="M250.072 61.429q0 6-1.286 11.571t-2.714 10.286-5 9.857-6 8.714-7.571 8.429-7.857 7.286-9.143 7.286-8.857 6.571-9.429 6.571-8.714 6q-4.857 0.571-14.286 0.571-15.429 0-30.286-2t-30.857-7.143-28-13.143-19.714-21.429-7.714-30.571q0-19.429 10.143-34.714t26.571-24 34.429-13 36.286-4.286q16.857 0 32.143 3.571t28.714 11.143 21.286 21 7.857 31.429zM215.786 307.714q0 17.143-4.714 36.429t-13.429 37.286-24 29.714-34.143 11.714q-26.571 0-41.143-19.714t-14.571-47.143q0-13.429 3.286-28.286t10.143-29.714 16-26.714 22.286-19.286 27.714-7.429q27.714 0 40.143 17.286t12.429 45.857zM178.357 443.429h124.857l-38.571-22.571h-38.571q20.286-12.857 31.429-36t11.143-48.286q0-21.143-6.571-37.571t-16-26.429-18.857-18.429-16-17.429-6.571-19.286q0-7.429 4.714-14.571t12.286-13.714 16.714-13.714 18.286-15.857 16.714-18.857 12.286-24.286 4.714-30.429q0-45.714-40-80.571-43.429-37.429-120-37.429-16.857 0-34.143 2.857t-34.857 9.571-31 16.571-22 25.429-8.571 34.714q0 17.429 10.571 38.571 9.143 18.286 27.429 31.571t41.429 20.286 44.286 10.286 42.857 3.857q-18.286 23.714-18.286 42.571 0 3.429 0.571 6.714t1.429 5.571 2.286 6.143 2 6.143q-11.429-1.429-20-1.429-42.571 0-73 28t-30.429 70.286q0 40 27.143 71.571t66.857 40.429q26.857 5.714 53.429 5.714zM475.214 370.286v-36.571h-73.143v-73.143h-36.571v73.143h-73.143v36.571h73.143v73.143h36.571v-73.143h73.143z" horiz-adv-x="475" />
<glyph unicode="&#xf0e0;" d="M512 277.143v-226.857q0-18.857-13.429-32.286t-32.286-13.429h-420.571q-18.857 0-32.286 13.429t-13.429 32.286v226.857q12.571-14 28.857-24.857 103.429-70.286 142-98.571 16.286-12 26.429-18.714t27-13.714 31.429-7h0.572q14.571 0 31.429 7t27 13.714 26.429 18.714q48.571 35.143 142.286 98.571 16.286 11.143 28.571 24.857zM512 361.143q0-22.571-14-43.143t-34.857-35.143q-107.429-74.571-133.714-92.857-2.857-2-12.143-8.714t-15.429-10.857-14.857-9.286-16.429-7.714-14.286-2.571h-0.572q-6.571 0-14.286 2.571t-16.429 7.714-14.857 9.286-15.429 10.857-12.143 8.714q-26 18.286-74.857 52.143t-58.571 40.714q-17.714 12-33.429 33t-15.714 39q0 22.286 11.857 37.143t33.857 14.857h420.571q18.571 0 32.143-13.429t13.571-32.286z" />
<glyph unicode="&#xf16a;" d="M365.714 224q0 10.571-8.571 15.429l-146.286 91.429q-8.857 5.714-18.571 0.571-9.429-5.143-9.429-16v-182.857q0-10.857 9.429-16 4.571-2.286 8.857-2.286 5.714 0 9.714 2.857l146.286 91.429q8.571 4.857 8.571 15.429zM512 224q0-27.429-0.286-42.857t-2.429-39-6.429-42.143q-4.571-20.857-19.714-35.143t-35.429-16.571q-63.429-7.143-191.714-7.143t-191.714 7.143q-20.286 2.286-35.571 16.571t-19.857 35.143q-4 18.571-6.143 42.143t-2.429 39-0.286 42.857 0.286 42.857 2.429 39 6.429 42.143q4.571 20.857 19.714 35.143t35.429 16.571q63.429 7.143 191.714 7.143t191.714-7.143q20.286-2.286 35.571-16.571t19.857-35.143q4-18.571 6.143-42.143t2.429-39 0.286-42.857z" />
</font>
</defs>
</svg>
