<?xml version="1.0" encoding="utf-8"?>
<!-- Generator: Adobe Illustrator 16.0.0, SVG Export Plug-In . SVG Version: 6.00 Build 0)  -->
<!DOCTYPE svg PUBLIC "-//W3C//DTD SVG 1.1//EN" "http://www.w3.org/Graphics/SVG/1.1/DTD/svg11.dtd">
<svg version="1.1" id="SemiBold" xmlns="http://www.w3.org/2000/svg" xmlns:xlink="http://www.w3.org/1999/xlink" x="0px" y="0px"
	 width="229.5px" height="91.5px" viewBox="0 0 229.5 91.5" enable-background="new 0 0 229.5 91.5" xml:space="preserve">
<path fill="#108B73" enable-background="new    " d="M221.984,71.05c0,6.53-4.797,10.591-11.321,10.591H18.849
	c-6.528,0-11.821-5.298-11.821-11.828V19.856c0-6.529,5.293-11.824,11.821-11.824h191.814c6.524,0,11.321,5.295,11.321,11.824V71.05
	z"/>
<g>
	<g>
		<path fill="#FFFFFF" d="M153.93,60.867l-1.615,1.521c-0.371,0.204-0.742,0.442-1.111,0.611c-1.121,0.509-2.262,0.639-3.273,0.639
			c-1.078,0-2.769-0.07-4.49-1.316c-2.396-1.688-3.442-4.588-3.442-7.114c0-5.231,4.259-7.798,7.731-7.798
			c1.215,0,2.463,0.304,3.477,0.945c1.686,1.112,2.122,2.562,2.363,3.34l-7.935,3.205l-2.598,0.201
			c0.841,4.289,3.741,6.783,6.948,6.783c1.604,0,2.791-0.521,3.884-1.062C153.866,60.825,154.085,60.711,153.93,60.867z
			 M149.143,52.334c0.646-0.234,0.979-0.438,0.979-0.906c0-1.348-1.524-2.904-3.345-2.904c-1.351,0-3.879,1.052-3.879,4.695
			c0,0.569,0.065,1.176,0.102,1.781L149.143,52.334z"/>
		<path fill="#FFFFFF" d="M137.342,60.605c0,1.312,0.234,1.516,1.344,1.617c0.578,0.067,1.153,0.1,1.726,0.166l-1.248,0.742h-5.947
			c0.78-1.012,0.914-1.111,0.914-1.787v-0.753l-0.013-20.063h-2.626l2.526-1.218h4.825c-1.046,0.605-1.358,0.975-1.493,2.155
			L137.342,60.605z"/>
		<path fill="#FFFFFF" d="M128.119,49.066c0.773,0.637,2.393,1.988,2.393,4.553c0,2.499-1.41,3.677-2.83,4.792
			c-0.437,0.438-0.945,0.915-0.945,1.651c0,0.746,0.511,1.149,0.878,1.453l1.219,0.939c1.481,1.251,2.833,2.396,2.833,4.729
			c0,3.176-3.072,6.375-8.877,6.375c-4.891,0-7.254-2.328-7.254-4.824c0-1.217,0.604-2.938,2.602-4.115
			c2.092-1.279,4.928-1.45,6.443-1.551c-0.475-0.611-1.016-1.252-1.016-2.299c0-0.571,0.172-0.912,0.338-1.314
			c-0.368,0.035-0.74,0.07-1.078,0.07c-3.579,0-5.604-2.67-5.604-5.301c0-1.554,0.707-3.273,2.161-4.521
			c1.925-1.584,4.218-1.857,6.041-1.857h6.954l-2.162,1.221H128.119L128.119,49.066z M125.729,64.047
			c-0.275-0.036-0.441-0.036-0.775-0.036c-0.307,0-2.129,0.066-3.541,0.54c-0.747,0.273-2.906,1.08-2.906,3.479
			c0,2.392,2.331,4.114,5.938,4.114c3.238,0,4.959-1.553,4.959-3.644C129.4,66.78,128.288,65.872,125.729,64.047z M126.698,57.635
			c0.78-0.777,0.848-1.854,0.848-2.466c0-2.427-1.446-6.207-4.252-6.207c-0.875,0-1.823,0.438-2.36,1.118
			c-0.57,0.703-0.742,1.615-0.742,2.492c0,2.26,1.317,6.008,4.219,6.008C125.254,58.58,126.164,58.169,126.698,57.635z"/>
		<path fill="#FFFFFF" d="M107.197,63.568c-5.364,0-8.234-4.178-8.234-7.959c0-4.418,3.608-8.199,8.74-8.199
			c4.961,0,8.068,3.884,8.068,7.962C115.771,59.354,112.7,63.568,107.197,63.568z M111.417,60.839
			c0.816-1.08,1.014-2.428,1.014-3.741c0-2.973-1.416-8.641-5.601-8.641c-1.113,0-2.234,0.436-3.042,1.146
			c-1.318,1.181-1.553,2.664-1.553,4.119c0,3.334,1.647,8.834,5.737,8.834C109.293,62.557,110.64,61.917,111.417,60.839z"/>
		<path fill="#FFFFFF" d="M89.238,63.568c-5.365,0-8.23-4.178-8.23-7.959c0-4.418,3.609-8.199,8.739-8.199
			c4.958,0,8.062,3.884,8.062,7.962C97.809,59.354,94.742,63.568,89.238,63.568z M93.459,60.839c0.81-1.08,1.012-2.428,1.012-3.741
			c0-2.973-1.42-8.641-5.601-8.641c-1.117,0-2.226,0.436-3.036,1.146c-1.32,1.181-1.554,2.664-1.554,4.119
			c0,3.334,1.654,8.834,5.737,8.834C91.335,62.557,92.68,61.917,93.459,60.839z"/>
		<path fill="#FFFFFF" d="M78.863,62.398l-4.524,1.035c-1.833,0.289-3.479,0.543-5.222,0.543c-8.727,0-12.051-6.425-12.051-11.449
			c0-6.142,4.711-11.833,12.778-11.833c1.707,0,3.35,0.251,4.846,0.658c2.371,0.667,3.479,1.487,4.173,1.969l-2.628,2.496
			l-1.108,0.248l0.79-1.26c-1.07-1.045-3.037-2.974-6.77-2.974c-4.991,0-8.757,3.794-8.757,9.333c0,5.949,4.3,11.545,11.194,11.545
			c2.026,0,3.069-0.405,4.016-0.787v-5.1l-4.776,0.257l2.532-1.36h6.703l-0.819,0.79c-0.222,0.188-0.251,0.252-0.313,0.504
			c-0.033,0.288-0.063,1.204-0.063,1.526L78.863,62.398L78.863,62.398z"/>
	</g>
	<g>
		<path fill="#FFFFFF" d="M163.656,61.011v8.597h-1.707V47.734h1.707v2.49c1.111-1.608,3.144-2.887,5.504-2.887
			c4.232,0,7.084,3.211,7.084,8.294c0,5.05-2.852,8.327-7.084,8.327C166.932,63.961,164.938,62.812,163.656,61.011z M174.41,55.634
			c0-3.831-1.997-6.753-5.538-6.753c-2.199,0-4.302,1.729-5.216,3.235v7.001c0.914,1.51,3.017,3.301,5.216,3.301
			C172.413,62.418,174.41,59.471,174.41,55.634z"/>
		<path fill="#FFFFFF" d="M178.575,63.566V41.696h1.706v21.871H178.575L178.575,63.566z"/>
		<path fill="#FFFFFF" d="M199.436,68.191c0.364,0.162,0.987,0.264,1.383,0.264c1.046,0,1.771-0.428,2.426-1.936l1.245-2.82
			l-6.726-15.965h1.903l5.769,13.834l5.713-13.834h1.932l-8.201,19.312c-0.852,1.99-2.188,2.947-4.027,2.947
			c-0.554,0-1.279-0.1-1.707-0.229L199.436,68.191z"/>
		<path fill="#FFFFFF" d="M194.449,63.52c-0.114-0.549-0.2-1.03-0.264-1.437c-0.054-0.403-0.082-0.815-0.082-1.233
			c-0.586,0.858-1.414,1.573-2.475,2.137c-1.061,0.566-2.064,0.847-3.447,0.847c-1.662,0-2.953-0.409-3.875-1.239
			c-0.918-0.828-1.381-1.951-1.381-3.373c0-1.419,0.67-2.57,2.004-3.451c1.334-0.886,3.06-1.324,5.191-1.324h3.98v-1.967
			c0-1.135-0.388-2.023-1.158-2.67c-0.772-0.646-1.858-0.976-3.269-0.976c-1.286,0-2.331,0.299-3.126,0.881
			c-0.787,0.595-1.185,1.33-1.185,2.218h-1.747l-0.036-0.086c-0.063-1.193,0.483-2.244,1.647-3.148
			c1.155-0.905,2.674-1.36,4.541-1.36c1.859,0,3.367,0.448,4.502,1.343c1.135,0.885,1.703,2.163,1.703,3.836v7.812
			c0,0.562,0.025,1.103,0.098,1.631s0.188,1.058,0.34,1.565h-1.965V63.52H194.449z M188.393,62.275c1.449,0,2.491-0.323,3.559-0.965
			c1.058-0.639,1.775-1.47,2.154-2.476v-3.04h-4c-1.527,0-2.793,0.338-3.789,1.021c-0.996,0.681-1.502,1.504-1.502,2.461
			c0,0.902,0.319,1.625,0.957,2.172C186.408,62.002,187.279,62.275,188.393,62.275z"/>
	</g>
</g>
<g>
	<g>
		<path fill="#FFFFFF" d="M57.024,23.755c0-3.361,2.497-5.522,5.603-5.522c2.081,0,3.441,0.992,4.29,2.209l-1.521,0.881
			c-0.576-0.801-1.585-1.425-2.77-1.425c-2.112,0-3.682,1.601-3.682,3.857c0,2.225,1.569,3.857,3.682,3.857
			c1.089,0,2.049-0.496,2.529-0.96v-1.649h-3.201v-1.648h5.058v3.985c-1.04,1.169-2.545,1.953-4.386,1.953
			C59.521,29.293,57.024,27.101,57.024,23.755z"/>
		<path fill="#FFFFFF" d="M69.329,29.085V18.408h7.314v1.649h-5.442v2.753h5.331v1.648h-5.331v2.978h5.442v1.648L69.329,29.085
			L69.329,29.085z"/>
		<path fill="#FFFFFF" d="M81.826,29.085v-9.027h-3.233v-1.649h8.339v1.649H83.7v9.027H81.826z"/>
		<path fill="#FFFFFF" d="M93.441,29.085V18.408h1.872v10.677H93.441z"/>
		<path fill="#FFFFFF" d="M100.529,29.085v-9.027h-3.233v-1.649h8.339v1.649h-3.232v9.027H100.529z"/>
		<path fill="#FFFFFF" d="M111.68,23.755c0-3.186,2.257-5.522,5.458-5.522c3.186,0,5.459,2.337,5.459,5.522
			s-2.273,5.522-5.459,5.522C113.937,29.277,111.68,26.94,111.68,23.755z M120.676,23.755c0-2.209-1.393-3.857-3.537-3.857
			c-2.161,0-3.538,1.648-3.538,3.857c0,2.192,1.377,3.857,3.538,3.857C119.283,27.612,120.676,25.947,120.676,23.755z"/>
		<path fill="#FFFFFF" d="M132.227,29.085l-5.568-7.635v7.635h-1.872V18.408h1.921l5.458,7.396v-7.396h1.873v10.677H132.227z"/>
	</g>
</g>
<path fill="#FFFFFF" d="M18.385,54.301V39.497c0-0.825,0.44-1.586,1.154-1.999c0.714-0.412,1.594-0.412,2.308,0l12.82,7.402
	l12.82,7.402c0.714,0.412,1.154,1.175,1.154,1.999s-0.44,1.586-1.154,1.999l-12.82,7.4l-12.82,7.401
	c-0.714,0.412-1.594,0.412-2.308,0s-1.154-1.176-1.154-1.998V54.301z"/>
</svg>
